<svg viewBox="0 0 100 100" fill="none" xmlns="http://www.w3.org/2000/svg" role="img" aria-label="Dharmiq">
  <g stroke="#1e3a5f" stroke-width="2.5" fill="none">
    <path d="M50 5 L55 15 L50 25 L45 15 Z" fill="#0e8c3f" fill-opacity="0.85" stroke="none"/>
    <path d="M95 50 L85 45 L75 50 L85 55 Z" fill="#0e8c3f" fill-opacity="0.85" stroke="none"/>
    <path d="M50 95 L45 85 L50 75 L55 85 Z" fill="#0e8c3f" fill-opacity="0.85" stroke="none"/>
    <path d="M5 50 L15 55 L25 50 L15 45 Z" fill="#0e8c3f" fill-opacity="0.85" stroke="none"/>
    <path d="M78.5 21.5 L71.5 28.5 L64.5 21.5 L71.5 14.5 Z" fill="#0e8c3f" fill-opacity="0.55" stroke="none"/>
    <path d="M78.5 78.5 L71.5 71.5 L78.5 64.5 L85.5 71.5 Z" fill="#0e8c3f" fill-opacity="0.55" stroke="none"/>
    <path d="M21.5 78.5 L28.5 71.5 L35.5 78.5 L28.5 85.5 Z" fill="#0e8c3f" fill-opacity="0.55" stroke="none"/>
    <path d="M21.5 21.5 L28.5 28.5 L21.5 35.5 L14.5 28.5 Z" fill="#0e8c3f" fill-opacity="0.55" stroke="none"/>
    <circle cx="50" cy="50" r="38" stroke-width="3"/>
    <circle cx="50" cy="50" r="33" stroke-width="1.5"/>
    <circle cx="50" cy="50" r="25" stroke-width="2"/>
    <line x1="50" y1="25" x2="50" y2="75" stroke-width="2"/>
    <line x1="25" y1="50" x2="75" y2="50" stroke-width="2"/>
    <line x1="32.32" y1="32.32" x2="67.68" y2="67.68" stroke-width="2"/>
    <line x1="67.68" y1="32.32" x2="32.32" y2="67.68" stroke-width="2"/>
    <circle cx="50" cy="50" r="6" fill="#0e8c3f" stroke="none"/>
    <circle cx="50" cy="50" r="3" fill="#f8fafc" stroke="none"/>
  </g>
</svg>
